<?xml version="1.0" encoding="UTF-8"?>
<!DOCTYPE svg
PUBLIC "-//W3C//DTD SVG 1.1//EN"
       "http://www.w3.org/Graphics/SVG/1.1/DTD/svg11.dtd">
<svg viewBox="50 34 948 678" width="898px" height="644px" xmlns="http://www.w3.org/2000/svg" version="1.1">
   <line x1="487" y1="143" x2="477" y2="143" style="stroke:#c00;stroke-width:1;"/>
   <line x1="479" y1="333" x2="489" y2="333" style="stroke:#c00;stroke-width:1;"/>
   <line x1="477" y1="143" x2="479" y2="333" style="stroke:#c00;stroke-width:1;"/>
   <line x1="479.5" y1="143" x2="483.03553390593" y2="146.53553390593" style="stroke:#c00;stroke-width:2;"/>
   <line x1="479.5" y1="143" x2="483.03553390593" y2="139.46446609407" style="stroke:#c00;stroke-width:2;"/>
   <line x1="484" y1="333" x2="480.46446609407" y2="336.53553390593" style="stroke:#c00;stroke-width:2;"/>
   <line x1="484" y1="333" x2="480.46446609407" y2="329.46446609407" style="stroke:#c00;stroke-width:2;"/>
   <line x1="597" y1="123" x2="607" y2="123" style="stroke:#0b0;stroke-width:1;"/>
   <line x1="819" y1="126" x2="829" y2="126" style="stroke:#0b0;stroke-width:1;"/>
   <line x1="607" y1="123" x2="819" y2="126" style="stroke:#0b0;stroke-width:1;"/>
   <line x1="604.5" y1="123" x2="600.96446609407" y2="126.53553390593" style="stroke:#0b0;stroke-width:2;"/>
   <line x1="604.5" y1="123" x2="600.96446609407" y2="119.46446609407" style="stroke:#0b0;stroke-width:2;"/>
   <line x1="824" y1="126" x2="820.46446609407" y2="129.53553390593" style="stroke:#0b0;stroke-width:2;"/>
   <line x1="824" y1="126" x2="820.46446609407" y2="122.46446609407" style="stroke:#0b0;stroke-width:2;"/>
   <rect width="88" height="20" x="489" y="303" style="fill:#007;stroke:black;"/>
   <text width="88" height="20" x="494" y="317" style="fill:#fff;" font-family="Arial" font-size="16px"> categories</text>
   <rect width="88" height="20" x="489" y="323" style="fill:#aea;stroke:black;"/>
   <text width="88" height="20" x="494" y="337" style="fill:black;" font-family="Arial" font-size="16px">id</text>
   <rect width="88" height="20" x="489" y="343" style="fill:none;stroke:black;"/>
   <text width="88" height="20" x="494" y="357" style="fill:black;" font-family="Arial" font-size="16px">name</text>
   <rect width="88" height="20" x="489" y="363" style="fill:none;stroke:black;"/>
   <text width="88" height="20" x="494" y="377" style="fill:black;" font-family="Arial" font-size="16px">description</text>
   <rect width="88" height="20" x="489" y="383" style="fill:none;stroke:black;"/>
   <text width="88" height="20" x="494" y="397" style="fill:black;" font-family="Arial" font-size="16px">created_at</text>
   <rect width="88" height="20" x="489" y="403" style="fill:none;stroke:black;"/>
   <text width="88" height="20" x="494" y="417" style="fill:black;" font-family="Arial" font-size="16px">updated_at</text>
   <rect width="110" height="20" x="487" y="73" style="fill:#007;stroke:black;"/>
   <text width="110" height="20" x="492" y="87" style="fill:#fff;" font-family="Arial" font-size="16px"> category_items</text>
   <rect width="110" height="20" x="487" y="93" style="fill:#aea;stroke:black;"/>
   <text width="110" height="20" x="492" y="107" style="fill:black;" font-family="Arial" font-size="16px">id</text>
   <rect width="110" height="20" x="487" y="113" style="fill:none;stroke:black;"/>
   <text width="110" height="20" x="492" y="127" style="fill:black;" font-family="Arial" font-size="16px">item_id</text>
   <rect width="110" height="20" x="487" y="133" style="fill:none;stroke:black;"/>
   <text width="110" height="20" x="492" y="147" style="fill:black;" font-family="Arial" font-size="16px">category_id</text>
   <rect width="110" height="20" x="487" y="153" style="fill:none;stroke:black;"/>
   <text width="110" height="20" x="492" y="167" style="fill:black;" font-family="Arial" font-size="16px">created_at</text>
   <rect width="110" height="20" x="487" y="173" style="fill:none;stroke:black;"/>
   <text width="110" height="20" x="492" y="187" style="fill:black;" font-family="Arial" font-size="16px">updated_at</text>
   <rect width="87" height="20" x="846" y="349" style="fill:#007;stroke:black;"/>
   <text width="87" height="20" x="851" y="363" style="fill:#fff;" font-family="Arial" font-size="16px"> failed_jobs</text>
   <rect width="87" height="20" x="846" y="369" style="fill:#aea;stroke:black;"/>
   <text width="87" height="20" x="851" y="383" style="fill:black;" font-family="Arial" font-size="16px">id</text>
   <rect width="87" height="20" x="846" y="389" style="fill:none;stroke:black;"/>
   <text width="87" height="20" x="851" y="403" style="fill:black;" font-family="Arial" font-size="16px">uuid</text>
   <rect width="87" height="20" x="846" y="409" style="fill:none;stroke:black;"/>
   <text width="87" height="20" x="851" y="423" style="fill:black;" font-family="Arial" font-size="16px">connection</text>
   <rect width="87" height="20" x="846" y="429" style="fill:none;stroke:black;"/>
   <text width="87" height="20" x="851" y="443" style="fill:black;" font-family="Arial" font-size="16px">queue</text>
   <rect width="87" height="20" x="846" y="449" style="fill:none;stroke:black;"/>
   <text width="87" height="20" x="851" y="463" style="fill:black;" font-family="Arial" font-size="16px">payload</text>
   <rect width="87" height="20" x="846" y="469" style="fill:none;stroke:black;"/>
   <text width="87" height="20" x="851" y="483" style="fill:black;" font-family="Arial" font-size="16px">exception</text>
   <rect width="87" height="20" x="846" y="489" style="fill:none;stroke:black;"/>
   <text width="87" height="20" x="851" y="503" style="fill:black;" font-family="Arial" font-size="16px">failed_at</text>
   <rect width="88" height="20" x="829" y="96" style="fill:#007;stroke:black;"/>
   <text width="88" height="20" x="834" y="110" style="fill:#fff;" font-family="Arial" font-size="16px"> items</text>
   <rect width="88" height="20" x="829" y="116" style="fill:#aea;stroke:black;"/>
   <text width="88" height="20" x="834" y="130" style="fill:black;" font-family="Arial" font-size="16px">id</text>
   <rect width="88" height="20" x="829" y="136" style="fill:none;stroke:black;"/>
   <text width="88" height="20" x="834" y="150" style="fill:black;" font-family="Arial" font-size="16px">name</text>
   <rect width="88" height="20" x="829" y="156" style="fill:none;stroke:black;"/>
   <text width="88" height="20" x="834" y="170" style="fill:black;" font-family="Arial" font-size="16px">description</text>
   <rect width="88" height="20" x="829" y="176" style="fill:none;stroke:black;"/>
   <text width="88" height="20" x="834" y="190" style="fill:black;" font-family="Arial" font-size="16px">price</text>
   <rect width="88" height="20" x="829" y="196" style="fill:none;stroke:black;"/>
   <text width="88" height="20" x="834" y="210" style="fill:black;" font-family="Arial" font-size="16px">quantity</text>
   <rect width="88" height="20" x="829" y="216" style="fill:none;stroke:black;"/>
   <text width="88" height="20" x="834" y="230" style="fill:black;" font-family="Arial" font-size="16px">created_at</text>
   <rect width="88" height="20" x="829" y="236" style="fill:none;stroke:black;"/>
   <text width="88" height="20" x="834" y="250" style="fill:black;" font-family="Arial" font-size="16px">updated_at</text>
   <rect width="83" height="20" x="69" y="180" style="fill:#007;stroke:black;"/>
   <text width="83" height="20" x="74" y="194" style="fill:#fff;" font-family="Arial" font-size="16px"> migrations</text>
   <rect width="83" height="20" x="69" y="200" style="fill:#aea;stroke:black;"/>
   <text width="83" height="20" x="74" y="214" style="fill:black;" font-family="Arial" font-size="16px">id</text>
   <rect width="83" height="20" x="69" y="220" style="fill:none;stroke:black;"/>
   <text width="83" height="20" x="74" y="234" style="fill:black;" font-family="Arial" font-size="16px">migration</text>
   <rect width="83" height="20" x="69" y="240" style="fill:none;stroke:black;"/>
   <text width="83" height="20" x="74" y="254" style="fill:black;" font-family="Arial" font-size="16px">batch</text>
   <rect width="172" height="20" x="65" y="49" style="fill:#007;stroke:black;"/>
   <text width="172" height="20" x="70" y="63" style="fill:#fff;" font-family="Arial" font-size="16px"> password_reset_tokens</text>
   <rect width="172" height="20" x="65" y="69" style="fill:none;stroke:black;"/>
   <text width="172" height="20" x="70" y="83" style="fill:black;" font-family="Arial" font-size="16px">email</text>
   <rect width="172" height="20" x="65" y="89" style="fill:none;stroke:black;"/>
   <text width="172" height="20" x="70" y="103" style="fill:black;" font-family="Arial" font-size="16px">token</text>
   <rect width="172" height="20" x="65" y="109" style="fill:none;stroke:black;"/>
   <text width="172" height="20" x="70" y="123" style="fill:black;" font-family="Arial" font-size="16px">created_at</text>
   <rect width="178" height="20" x="69" y="324" style="fill:#007;stroke:black;"/>
   <text width="178" height="20" x="74" y="338" style="fill:#fff;" font-family="Arial" font-size="16px"> personal_access_tokens</text>
   <rect width="178" height="20" x="69" y="344" style="fill:#aea;stroke:black;"/>
   <text width="178" height="20" x="74" y="358" style="fill:black;" font-family="Arial" font-size="16px">id</text>
   <rect width="178" height="20" x="69" y="364" style="fill:none;stroke:black;"/>
   <text width="178" height="20" x="74" y="378" style="fill:black;" font-family="Arial" font-size="16px">tokenable_type</text>
   <rect width="178" height="20" x="69" y="384" style="fill:none;stroke:black;"/>
   <text width="178" height="20" x="74" y="398" style="fill:black;" font-family="Arial" font-size="16px">tokenable_id</text>
   <rect width="178" height="20" x="69" y="404" style="fill:none;stroke:black;"/>
   <text width="178" height="20" x="74" y="418" style="fill:black;" font-family="Arial" font-size="16px">name</text>
   <rect width="178" height="20" x="69" y="424" style="fill:none;stroke:black;"/>
   <text width="178" height="20" x="74" y="438" style="fill:black;" font-family="Arial" font-size="16px">token</text>
   <rect width="178" height="20" x="69" y="444" style="fill:none;stroke:black;"/>
   <text width="178" height="20" x="74" y="458" style="fill:black;" font-family="Arial" font-size="16px">abilities</text>
   <rect width="178" height="20" x="69" y="464" style="fill:none;stroke:black;"/>
   <text width="178" height="20" x="74" y="478" style="fill:black;" font-family="Arial" font-size="16px">last_used_at</text>
   <rect width="178" height="20" x="69" y="484" style="fill:none;stroke:black;"/>
   <text width="178" height="20" x="74" y="498" style="fill:black;" font-family="Arial" font-size="16px">expires_at</text>
   <rect width="178" height="20" x="69" y="504" style="fill:none;stroke:black;"/>
   <text width="178" height="20" x="74" y="518" style="fill:black;" font-family="Arial" font-size="16px">created_at</text>
   <rect width="178" height="20" x="69" y="524" style="fill:none;stroke:black;"/>
   <text width="178" height="20" x="74" y="538" style="fill:black;" font-family="Arial" font-size="16px">updated_at</text>
   <rect width="127" height="20" x="493" y="483" style="fill:#007;stroke:black;"/>
   <text width="127" height="20" x="498" y="497" style="fill:#fff;" font-family="Arial" font-size="16px"> users</text>
   <rect width="127" height="20" x="493" y="503" style="fill:#aea;stroke:black;"/>
   <text width="127" height="20" x="498" y="517" style="fill:black;" font-family="Arial" font-size="16px">id</text>
   <rect width="127" height="20" x="493" y="523" style="fill:none;stroke:black;"/>
   <text width="127" height="20" x="498" y="537" style="fill:black;" font-family="Arial" font-size="16px">name</text>
   <rect width="127" height="20" x="493" y="543" style="fill:none;stroke:black;"/>
   <text width="127" height="20" x="498" y="557" style="fill:black;" font-family="Arial" font-size="16px">email</text>
   <rect width="127" height="20" x="493" y="563" style="fill:none;stroke:black;"/>
   <text width="127" height="20" x="498" y="577" style="fill:black;" font-family="Arial" font-size="16px">email_verified_at</text>
   <rect width="127" height="20" x="493" y="583" style="fill:none;stroke:black;"/>
   <text width="127" height="20" x="498" y="597" style="fill:black;" font-family="Arial" font-size="16px">password</text>
   <rect width="127" height="20" x="493" y="603" style="fill:none;stroke:black;"/>
   <text width="127" height="20" x="498" y="617" style="fill:black;" font-family="Arial" font-size="16px">remember_token</text>
   <rect width="127" height="20" x="493" y="623" style="fill:none;stroke:black;"/>
   <text width="127" height="20" x="498" y="637" style="fill:black;" font-family="Arial" font-size="16px">created_at</text>
   <rect width="127" height="20" x="493" y="643" style="fill:none;stroke:black;"/>
   <text width="127" height="20" x="498" y="657" style="fill:black;" font-family="Arial" font-size="16px">updated_at</text>
</svg>
